ModelForces
version=1
nRows=4
nColumns=155
inDegrees=no

This file contains the forces exerted on a model during a simulation.

A force is a generalized force, meaning that it can be either a force (N) or a torque (Nm).

Units are S.I. units (second, meters, Newtons, ...)
Angles are in degrees.

endheader
time	glut_med1_r	glut_med2_r	glut_med3_r	glut_min1_r	glut_min2_r	glut_min3_r	semimem_r	semiten_r	bifemlh_r	bifemsh_r	sar_r	add_long_r	add_brev_r	add_mag1_r	add_mag2_r	add_mag3_r	tfl_r	pect_r	grac_r	glut_max1_r	glut_max2_r	glut_max3_r	iliacus_r	psoas_r	quad_fem_r	gem_r	peri_r	rect_fem_r	vas_med_r	vas_int_r	vas_lat_r	med_gas_r	lat_gas_r	soleus_r	tib_post_r	flex_dig_r	flex_hal_r	tib_ant_r	per_brev_r	per_long_r	per_tert_r	ext_dig_r	ext_hal_r	glut_med1_l	glut_med2_l	glut_med3_l	glut_min1_l	glut_min2_l	glut_min3_l	semimem_l	semiten_l	bifemlh_l	bifemsh_l	sar_l	add_long_l	add_brev_l	add_mag1_l	add_mag2_l	add_mag3_l	tfl_l	pect_l	grac_l	glut_max1_l	glut_max2_l	glut_max3_l	iliacus_l	psoas_l	quad_fem_l	gem_l	peri_l	rect_fem_l	vas_med_l	vas_int_l	vas_lat_l	med_gas_l	lat_gas_l	soleus_l	tib_post_l	flex_dig_l	flex_hal_l	tib_ant_l	per_brev_l	per_long_l	per_tert_l	ext_dig_l	ext_hal_l	ercspn_r	ercspn_l	intobl_r	intobl_l	extobl_r	extobl_l	femur_lat_meniscii_r.femur_lat_r.force.X	femur_lat_meniscii_r.femur_lat_r.force.Y	femur_lat_meniscii_r.femur_lat_r.force.Z	femur_lat_meniscii_r.femur_lat_r.torque.X	femur_lat_meniscii_r.femur_lat_r.torque.Y	femur_lat_meniscii_r.femur_lat_r.torque.Z	femur_lat_meniscii_r.meniscus_lat_r.force.X	femur_lat_meniscii_r.meniscus_lat_r.force.Y	femur_lat_meniscii_r.meniscus_lat_r.force.Z	femur_lat_meniscii_r.meniscus_lat_r.torque.X	femur_lat_meniscii_r.meniscus_lat_r.torque.Y	femur_lat_meniscii_r.meniscus_lat_r.torque.Z	femur_med_meniscii_r.femur_med_r.force.X	femur_med_meniscii_r.femur_med_r.force.Y	femur_med_meniscii_r.femur_med_r.force.Z	femur_med_meniscii_r.femur_med_r.torque.X	femur_med_meniscii_r.femur_med_r.torque.Y	femur_med_meniscii_r.femur_med_r.torque.Z	femur_med_meniscii_r.meniscus_med_r.force.X	femur_med_meniscii_r.meniscus_med_r.force.Y	femur_med_meniscii_r.meniscus_med_r.force.Z	femur_med_meniscii_r.meniscus_med_r.torque.X	femur_med_meniscii_r.meniscus_med_r.torque.Y	femur_med_meniscii_r.meniscus_med_r.torque.Z	femur_med_tibia_r.tibia_upper_r.force.X	femur_med_tibia_r.tibia_upper_r.force.Y	femur_med_tibia_r.tibia_upper_r.force.Z	femur_med_tibia_r.tibia_upper_r.torque.X	femur_med_tibia_r.tibia_upper_r.torque.Y	femur_med_tibia_r.tibia_upper_r.torque.Z	femur_med_tibia_r.femur_med_r.force.X	femur_med_tibia_r.femur_med_r.force.Y	femur_med_tibia_r.femur_med_r.force.Z	femur_med_tibia_r.femur_med_r.torque.X	femur_med_tibia_r.femur_med_r.torque.Y	femur_med_tibia_r.femur_med_r.torque.Z	femur_lat_tibia_r.tibia_upper_r.force.X	femur_lat_tibia_r.tibia_upper_r.force.Y	femur_lat_tibia_r.tibia_upper_r.force.Z	femur_lat_tibia_r.tibia_upper_r.torque.X	femur_lat_tibia_r.tibia_upper_r.torque.Y	femur_lat_tibia_r.tibia_upper_r.torque.Z	femur_lat_tibia_r.femur_lat_r.force.X	femur_lat_tibia_r.femur_lat_r.force.Y	femur_lat_tibia_r.femur_lat_r.force.Z	femur_lat_tibia_r.femur_lat_r.torque.X	femur_lat_tibia_r.femur_lat_r.torque.Y	femur_lat_tibia_r.femur_lat_r.torque.Z	aACL_R	pACL_R	aPCL_R	pPCL_R	aMCL_R	mMCL_R	pMCL_R	aLCL_R	mLCL_R	pLCL_R	aPCL_L	pPCL_L	aMCL_L	aLCL_L
      0.10575416	      6.07985865	     11.52239051	     12.42444577	      5.25499203	      6.01942834	      6.66492220	    114.53082458	    167.52470055	    245.70490626	    379.07388418	    124.97959756	     11.51117135	      8.13299676	      0.00000000	      4.89233763	      8.65828500	      5.00559053	      0.00000000	     99.30143912	      7.44837124	     11.34712938	      8.56525846	     33.45439334	     25.26294585	      7.10921264	      4.63012995	      3.63248806	     39.17429218	      0.00000000	      0.00000000	      0.00000000	     19.97661722	      0.37816983	      0.00000000	      1.93639258	      3.57990590	      0.72462296	     30.58702874	      1.74068944	      3.16659308	      7.59154747	     17.40620046	      5.48749944	      6.07985865	     11.52239051	     12.42444577	      5.25499203	      6.01942834	      6.66492220	      0.00000000	      8.69437880	     14.93475004	     14.48324560	      2.99410246	     11.51117135	      8.13299676	      0.00000000	      4.89233763	      8.65828500	      6.95084420	      0.00000000	      3.10728977	      7.44837124	     11.34712938	      8.56525846	     33.45439334	     25.26294585	      7.10921264	      4.63012995	      3.63248806	     23.85339313	      0.00000000	      0.00000000	      0.00000000	     15.33846396	      8.08824121	     57.92229506	     58.00583454	      8.14621595	      7.55835558	     16.88504634	      9.57201758	     21.90783949	      3.89862337	     11.30519277	      3.82395097	     49.49687325	     49.49687325	     18.81835018	     18.81835018	     35.72544447	     35.72544447	     19.88919534	    192.88237006	     30.54572644	    -17.21889785	      0.55020708	      7.57096318	    -19.88919534	   -192.88237006	    -30.54572644	      5.96638546	     -0.90594654	      2.00220205	    -20.16828177	     32.37714442	      1.13056201	      0.30964380	      0.48175362	     -8.27354330	     20.16828177	    -32.37714442	     -1.13056201	     -0.66977093	     -0.44824454	      0.88954014	    -54.24088655	   -482.27879901	    119.31773077	    -11.66015068	      1.78052606	      1.91353602	     54.24088655	    482.27879901	   -119.31773077	     58.37384712	     -0.68551657	     23.74813349	    -56.42689092	   -277.77557436	    -68.51091595	      9.43742239	     -2.14596012	      0.92824251	     56.42689092	    277.77557436	     68.51091595	    -35.02137652	      1.32168693	     23.48518015	     17.94765627	     -9.59387077	      0.00000000	      0.00000000	      0.00000000	      0.00000000	    -32.91217175	      0.00000000	      0.00000000	      0.00000000	      0.00000000	      0.00000000	      0.00000001	      0.00000000
      0.10657471	      7.10630338	     11.45851243	     12.35621275	      5.22675386	      5.98828390	      6.63623782	    113.86484984	    166.76113107	    243.76849751	    377.26167529	    124.95168540	     11.44632258	      8.08968370	      0.00000000	      4.87933321	      8.60893309	      5.01404018	      0.00000000	     99.13027162	      7.40733994	     11.28345570	      8.51658175	     33.33414242	     25.12605976	      7.09594928	      4.61047421	      3.80931245	     39.00921952	      0.00000000	      0.00000000	      0.00000000	     21.31720302	      0.33636576	      0.00000000	      1.30834882	      3.25111919	      0.51724095	     30.80755006	      1.90417220	      3.18140439	      9.73290649	     17.33899561	      5.46299939	      7.10630338	     11.45851243	     12.35621275	      5.22675386	      5.98828390	      6.63623782	      0.00000000	      8.64359709	     14.93113776	     14.40373450	      2.97808538	     11.44632258	      8.08968370	      0.00000000	      4.87933321	      8.60893309	      6.92189620	      0.00000000	      3.09039257	      7.40733994	     11.28345570	      8.51658175	     33.33414242	     25.12605976	      7.09594928	      4.61047421	      3.80931245	     23.73381946	      0.00000000	      0.00000000	      0.00000000	     15.66804609	      8.20997429	     57.99044257	     57.92020286	      8.05685959	      7.46303388	     16.86595181	      9.53863775	     21.87393250	      3.87779116	     11.40778690	      3.86014478	     49.23034782	     49.23034782	     18.71027665	     18.71027665	     35.62576266	     35.62576266	     18.28129464	    192.38018621	     30.48971389	    -17.17766568	      0.51050897	      6.87339172	    -18.28129464	   -192.38018621	    -30.48971389	      5.93881779	     -0.86426296	      2.09736963	    -20.68170031	     33.53629720	      1.47133923	      0.19722841	      0.49160733	     -8.48878901	     20.68170031	    -33.53629720	     -1.47133923	     -0.68629618	     -0.46130142	      0.92350378	    -57.08963182	   -486.11127249	    119.38316909	    -11.73011379	      1.83772712	      1.87887491	     57.08963182	    486.11127249	   -119.38316909	     58.45905990	     -0.73529085	     24.95610569	    -55.83646677	   -266.32277063	    -65.82493132	      9.03914794	     -2.11090666	      0.87490415	     55.83646677	    266.32277063	     65.82493132	    -33.63033531	      1.31121663	     23.22023199	     16.81918512	    -10.57744723	      0.00000000	      0.00000000	      0.00000000	      0.00000000	    -32.65411493	      0.00000000	      0.00000000	      0.00000000	      0.00000000	      0.00000000	      0.00000001	      0.00000000
      0.10738825	      7.96313282	     11.39584689	     12.28914332	      5.19906892	      5.95775331	      6.60748231	    113.19483158	    166.07827184	    241.68142145	    375.36458827	    124.93698321	     11.38275280	      8.04721762	      0.00000000	      4.86535497	      8.56042699	      5.02213354	      0.26634285	     98.96140812	      7.36703284	     11.22102487	      8.46886231	     33.21629019	     24.99189433	      7.07913393	      4.59119312	      3.97388827	     38.84275887	      0.00000000	      0.00000000	      0.00000000	     22.77092096	      0.31016098	      0.00000000	      0.67268904	      2.92558710	      0.32361538	     30.27486542	      2.08378461	      3.21944355	      9.57656317	     17.27176053	      5.43901029	      7.96313282	     11.39584689	     12.28914332	      5.19906892	      5.95775331	      6.60748231	      0.00000000	      8.59381654	     14.92562866	     14.32578765	      2.96238181	     11.38275280	      8.04721762	      0.00000000	      4.86535497	      8.56042699	      6.89339727	      0.26634285	      3.07382715	      7.36703284	     11.22102487	      8.46886231	     33.21629019	     24.99189433	      7.07913393	      4.59119312	      3.97388827	     23.61544851	      0.00000000	      0.00000000	      0.00000000	     15.98014783	      8.32525195	     58.04525127	     57.83391547	      7.96998496	      7.37027658	     16.84461094	      9.50505677	     21.83924053	      3.85735695	     11.50331652	      3.89240685	     48.96904596	     48.96904596	     18.60433152	     18.60433152	     35.52807861	     35.52807861	     16.67556555	    192.02646029	     30.41137805	    -17.13156955	      0.47185054	      6.17532638	    -16.67556555	   -192.02646029	    -30.41137805	      5.91530425	     -0.82353936	      2.19559077	    -21.09376482	     34.45240475	      1.89299552	      0.04388439	      0.49655667	     -8.66285857	     21.09376482	    -34.45240475	     -1.89299552	     -0.69342079	     -0.47060830	      0.95277617	    -59.50068567	   -488.98389847	    119.28533490	    -11.77975029	      1.88630204	      1.85814196	     59.50068567	    488.98389847	   -119.28533490	     58.45942874	     -0.77684179	     25.97412323	    -53.71638652	   -256.63983918	    -63.88372380	      8.71595923	     -2.04798927	      0.90105508	     53.71638652	    256.63983918	     63.88372380	    -32.59462307	      1.26882026	     22.30738141	     15.64242189	    -11.57279810	      0.00000000	      0.00000000	      0.00000000	      0.00000000	    -32.46172189	      0.00000000	      0.00000000	      0.00000000	      0.00000000	      0.00000000	      0.00000001	      0.00000000
      0.10788771	      8.42484160	     11.35770219	     12.24825887	      5.18222443	      5.93917922	      6.58969094	    112.78452800	    165.69612288	    240.31785552	    374.13884999	    124.93685622	     11.34407887	      8.02137897	      0.00000000	      4.85628575	      8.53085778	      5.02687014	      1.69473789	     98.86412026	      7.34247351	     11.18303819	      8.43983007	     33.14460561	     24.91028236	      7.06726115	      4.57945720	      4.06999355	     38.74299704	      0.00000000	      0.00000000	      0.00000000	     23.72337803	      0.30080513	      0.00000000	      0.27590751	      2.72646842	      0.21114217	     30.32319413	      2.20328977	      3.25433499	      8.95947090	     17.23149792	      5.42450292	      8.42484160	     11.35770219	     12.24825887	      5.18222443	      5.93917922	      6.58969094	      0.00000000	      8.56353137	     14.92130950	     14.27836521	      2.95282705	     11.34407887	      8.02137897	      0.00000000	      4.85628575	      8.53085778	      6.87600178	      1.69473789	      3.06374852	      7.34247351	     11.18303819	      8.43983007	     33.14460561	     24.91028236	      7.06726115	      4.57945720	      4.06999355	     23.54288736	      0.00000000	      0.00000000	      0.00000000	     16.16481698	      8.39344756	     58.07283906	     57.78027777	      7.91752849	      7.31424620	     16.83035354	      9.48421310	     21.81742026	      3.84491957	     11.55865503	      3.91032469	     48.81006162	     48.81006162	     18.53987632	     18.53987632	     35.46866606	     35.46866606	     16.79142899	    193.67152228	     30.31926812	    -17.13290464	      0.46897820	      6.20304240	    -16.79142899	   -193.67152228	    -30.31926812	      5.95135010	     -0.82138230	      2.24059540	    -21.19463541	     35.11415482	      2.14211999	     -0.04563992	      0.49854812	     -8.70419288	     21.19463541	    -35.11415482	     -2.14211999	     -0.69849893	     -0.47555148	      0.96454288	    -61.64599200	   -490.05195725	    119.32669710	    -11.80355815	      1.92709812	      1.81461294	     61.64599200	    490.05195725	   -119.32669710	     58.49033589	     -0.81349332	     26.87785087	    -52.87326645	   -251.73589525	    -62.82348182	      8.54893183	     -2.02168936	      0.90839341	     52.87326645	    251.73589525	     62.82348182	    -32.03789812	      1.25279384	     21.94129488	     15.11747326	    -11.98511640	      0.00000000	     65.31272804	      0.00000000	      0.00000000	    -33.11557629	      0.00000000	      0.00000000	      0.00000000	      0.00000000	      0.00000000	      0.00000001	      0.00000000
